<svg width="236" height="37" viewBox="0 0 236 37" fill="none" xmlns="http://www.w3.org/2000/svg">
<path d="M11.608 31.224C9.496 31.224 7.55467 30.7333 5.784 29.752C4.03467 28.7707 2.63733 27.4053 1.592 25.656C0.568 23.8853 0.056 21.9013 0.056 19.704C0.056 17.5067 0.568 15.5333 1.592 13.784C2.63733 12.0347 4.03467 10.6693 5.784 9.688C7.55467 8.70667 9.496 8.216 11.608 8.216C13.72 8.216 15.6507 8.70667 17.4 9.688C19.1707 10.6693 20.5573 12.0347 21.56 13.784C22.584 15.5333 23.096 17.5067 23.096 19.704C23.096 21.9013 22.584 23.8853 21.56 25.656C20.536 27.4053 19.1493 28.7707 17.4 29.752C15.6507 30.7333 13.72 31.224 11.608 31.224ZM11.608 26.232C13.4 26.232 14.8293 25.6347 15.896 24.44C16.984 23.2453 17.528 21.6667 17.528 19.704C17.528 17.72 16.984 16.1413 15.896 14.968C14.8293 13.7733 13.4 13.176 11.608 13.176C9.79467 13.176 8.344 13.7627 7.256 14.936C6.18933 16.1093 5.656 17.6987 5.656 19.704C5.656 21.688 6.18933 23.2773 7.256 24.472C8.344 25.6453 9.79467 26.232 11.608 26.232ZM36.5163 8.536V21.976C36.5163 23.32 36.8469 24.3547 37.5083 25.08C38.1696 25.8053 39.1403 26.168 40.4203 26.168C41.7003 26.168 42.6816 25.8053 43.3643 25.08C44.0469 24.3547 44.3883 23.32 44.3883 21.976V8.536H49.8603V21.944C49.8603 23.9493 49.4336 25.6453 48.5803 27.032C47.7269 28.4187 46.5749 29.464 45.1243 30.168C43.6949 30.872 42.0949 31.224 40.3243 31.224C38.5536 31.224 36.9643 30.8827 35.5563 30.2C34.1696 29.496 33.0709 28.4507 32.2603 27.064C31.4496 25.656 31.0443 23.9493 31.0443 21.944V8.536H36.5163ZM74.8628 8.536V12.92H68.9108V31H63.4388V12.92H57.4868V8.536H74.8628ZM97.233 8.536V12.92H88.081V17.656H94.929V21.912H88.081V31H82.609V8.536H97.233ZM110.581 8.536V31H105.109V8.536H110.581ZM135.707 8.536V12.92H129.755V31H124.283V12.92H118.331V8.536H135.707ZM155.645 0.599998L147.069 36.984H141.789L150.365 0.599998H155.645ZM180.073 15.768C180.073 17.0693 179.774 18.264 179.177 19.352C178.579 20.4187 177.662 21.2827 176.425 21.944C175.187 22.6053 173.651 22.936 171.817 22.936H168.425V31H162.953V8.536H171.817C173.609 8.536 175.123 8.84533 176.361 9.464C177.598 10.0827 178.526 10.936 179.145 12.024C179.763 13.112 180.073 14.36 180.073 15.768ZM171.401 18.584C172.446 18.584 173.225 18.3387 173.737 17.848C174.249 17.3573 174.505 16.664 174.505 15.768C174.505 14.872 174.249 14.1787 173.737 13.688C173.225 13.1973 172.446 12.952 171.401 12.952H168.425V18.584H171.401ZM199.378 31L194.706 22.52H193.394V31H187.922V8.536H197.106C198.876 8.536 200.38 8.84533 201.618 9.464C202.876 10.0827 203.815 10.936 204.434 12.024C205.052 13.0907 205.362 14.2853 205.362 15.608C205.362 17.1013 204.935 18.4347 204.082 19.608C203.25 20.7813 202.012 21.6133 200.37 22.104L205.554 31H199.378ZM193.394 18.648H196.786C197.788 18.648 198.535 18.4027 199.026 17.912C199.538 17.4213 199.794 16.728 199.794 15.832C199.794 14.9787 199.538 14.3067 199.026 13.816C198.535 13.3253 197.788 13.08 196.786 13.08H193.394V18.648ZM224.421 31.224C222.309 31.224 220.367 30.7333 218.597 29.752C216.847 28.7707 215.45 27.4053 214.405 25.656C213.38 23.8853 212.868 21.9013 212.868 19.704C212.868 17.5067 213.38 15.5333 214.405 13.784C215.45 12.0347 216.847 10.6693 218.597 9.688C220.367 8.70667 222.309 8.216 224.421 8.216C226.533 8.216 228.463 8.70667 230.213 9.688C231.983 10.6693 233.37 12.0347 234.373 13.784C235.397 15.5333 235.909 17.5067 235.909 19.704C235.909 21.9013 235.397 23.8853 234.373 25.656C233.349 27.4053 231.962 28.7707 230.213 29.752C228.463 30.7333 226.533 31.224 224.421 31.224ZM224.421 26.232C226.213 26.232 227.642 25.6347 228.708 24.44C229.797 23.2453 230.341 21.6667 230.341 19.704C230.341 17.72 229.797 16.1413 228.708 14.968C227.642 13.7733 226.213 13.176 224.421 13.176C222.607 13.176 221.157 13.7627 220.069 14.936C219.002 16.1093 218.469 17.6987 218.469 19.704C218.469 21.688 219.002 23.2773 220.069 24.472C221.157 25.6453 222.607 26.232 224.421 26.232Z" fill="#333333"/>
</svg>
